# xmcd
#
# Track frame offsets:
#	150
#	24461
#	40651
#	60988
#	98110
#	154656
#
# Disc length: 2718 seconds
#
# Revision: 1
# Processed by: cddbd v1.5.2PL0 Copyright (c) Steve Scherf et al.
# Submitted via: audiograbber 1.83.01
#
DISCID=3a0a9c06
DTITLE=Gary Clark Jr. - The Bright Lights - Australian Tour Edition
DYEAR=2011
DGENRE=Rock
TTITLE0=Bright Lights
TTITLE1=Don`t Owe you a Thang
TTITLE2=Things Are Changin' [live solo acoustic]
TTITLE3=When My Train Pulls In [live solo acoustic]
TTITLE4=Third Stone From the Sun - If You Love Me Like You Say [live in Charlot
TTITLE4=tesville, VA]
TTITLE5=Brights Lights [live in London, England]
EXTD=
EXTT0=
EXTT1=
EXTT2=Live - Solo Acoustic
EXTT3=Live - Solo Acoustic
EXTT4=Live in Charlottesville, VA
EXTT5=Live in London, England
PLAYORDER=
